<?xml version="1.0" encoding="UTF-8"?>
<svg viewBox="0 0 442.04431 358.50433" xmlns="http://www.w3.org/2000/svg" xmlns:xlink="http://www.w3.org/1999/xlink">
 <defs>
  <linearGradient id="b">
   <stop stop-color="#d75b00" stop-opacity="0" offset="0"/>
   <stop stop-color="#d75b00" stop-opacity=".49804" offset=".89286"/>
   <stop stop-color="#d75b00" offset="1"/>
  </linearGradient>
  <linearGradient id="c">
   <stop stop-color="#fff" offset="0"/>
   <stop stop-color="#fff" offset=".53571"/>
   <stop stop-color="#c8c8c8" offset="1"/>
  </linearGradient>
  <linearGradient id="a">
   <stop stop-color="#fff" offset="0"/>
   <stop stop-color="#fff" stop-opacity="0" offset="1"/>
  </linearGradient>
  <radialGradient id="t" cx="466.38" cy="190.25" r="12.411" gradientTransform="matrix(1 0 0 1.6375 0 -125.43)" gradientUnits="userSpaceOnUse" xlink:href="#b"/>
  <radialGradient id="s" cx="357.42" cy="344.77" r="64.85" gradientTransform="matrix(.90816 0 0 .486 32.824 187.5)" gradientUnits="userSpaceOnUse" xlink:href="#a"/>
  <radialGradient id="r" cx="539.59" cy="327.8" r="4.0239" gradientTransform="matrix(2.4157 1.7764 -5.0006 4.991 857.92 -2259.2)" gradientUnits="userSpaceOnUse" xlink:href="#a"/>
  <radialGradient id="q" cx="364.92" cy="313.88" r="14.838" gradientTransform="matrix(1.4891 1.9263e-7 -1.1603e-7 .89695 -170.74 26.463)" gradientUnits="userSpaceOnUse" xlink:href="#a"/>
  <radialGradient id="p" cx="379.01" cy="311.71" r="8.2994" gradientTransform="matrix(.83919 1.4749 -.5531 .3147 303.52 -346.91)" gradientUnits="userSpaceOnUse" xlink:href="#a"/>
  <radialGradient id="o" cx="419.75" cy="378.85" r="5.2814" gradientTransform="matrix(.97536 .22063 -.73544 3.2512 316.63 -858.97)" gradientUnits="userSpaceOnUse" xlink:href="#a"/>
  <radialGradient id="n" cx="534.61" cy="297.88" r="3.7724" gradientTransform="matrix(2.3588 -.00055533 -.12108 5.2 -690.38 -1248.7)" gradientUnits="userSpaceOnUse" xlink:href="#a"/>
  <radialGradient id="m" cx="512.12" cy="210.48" r="81.873" gradientTransform="matrix(1 0 0 1.2503 0 46.244)" gradientUnits="userSpaceOnUse" xlink:href="#b"/>
  <radialGradient id="l" cx="501.75" cy="349.74" r="5.7844" gradientTransform="matrix(1.2641 .2447 .1183 1.7806 -173.9 -394.01)" gradientUnits="userSpaceOnUse" xlink:href="#a"/>
  <radialGradient id="k" cx="576.9" cy="336.55" r="33.923" gradientTransform="matrix(1.4751 .22973 -.12337 .79217 -232.63 -41.217)" gradientUnits="userSpaceOnUse" xlink:href="#b"/>
  <radialGradient id="j" cx="593.5" cy="418.84" r="25.987" gradientTransform="matrix(.95115 .30872 -.30021 .92495 154.73 -152.14)" gradientUnits="userSpaceOnUse" xlink:href="#b"/>
  <radialGradient id="i" cx="406.17" cy="219.15" r="4.7784" gradientTransform="matrix(1 0 0 3 0 -438.31)" gradientUnits="userSpaceOnUse" xlink:href="#a"/>
  <radialGradient id="h" cx="451.74" cy="476.96" r="27.073" gradientTransform="matrix(.68373 -.057372 .18413 2.1944 55.049 -538.7)" gradientUnits="userSpaceOnUse" xlink:href="#b"/>
  <radialGradient id="g" cx="240.94" cy="320.58" r="26.504" gradientTransform="matrix(.83786 -.32645 .135 .34649 .84026 283.7)" gradientUnits="userSpaceOnUse" xlink:href="#b"/>
  <radialGradient id="f" cx="378.23" cy="302.51" r="8.2994" gradientTransform="matrix(1.4583 1.9334 -1.9945 .18171 325.23 -481.63)" gradientUnits="userSpaceOnUse" xlink:href="#a"/>
  <radialGradient id="e" cx="352.86" cy="366.34" r="29.342" gradientTransform="matrix(-.94881 1.3129 -.81908 -.59192 987.73 118.46)" gradientUnits="userSpaceOnUse" xlink:href="#c"/>
  <radialGradient id="d" cx="383.05" cy="360.07" r="13.342" gradientTransform="matrix(1.0046 -.22474 .53316 2.3832 -193.73 -411.97)" gradientUnits="userSpaceOnUse" xlink:href="#c"/>
 </defs>
 <g transform="translate(-179.11 -175.68)">
  <path d="m416.82 424.98 15.464 20.936 0.47583 28.074-6.8995 31.642c-4.2138 9.449-13.71 14.936-22.84 20.698l6.4237 0.23791c1.5259 0.38121 8.479-3.5793 12.847-5.472l-0.47583 5.2341-5.7099 5.472 8.5649 0.23791c4.4361 0.83935 4.9675-3.5276 5.7099-7.6132 3.393-0.19276 5.164-3.6296 7.3753-6.1858l0.23792-7.8512 4.2824-4.0445 0.23791-4.2824-6.6616-5.9478c6.4783-9.224 10.52-20.885 15.226-31.88 4.0926-11.601 4.377-23.963 5.472-36.163l-1.1896-3.3308c-9.3052-1.0833-17.956-4.7828-26.646-8.327l-11.896 8.5649z" fill="#ff6d00" fill-rule="evenodd"/>
  <path d="m586.19 390.11c0.72515 2.2392 3.552 3.7778 5.3588 5.6565l-22.775 23.668 2.084 2.8282 21.882-18.458 1.3397 1.042c-3.7082 9.6412-7.5886 19.213-9.3779 29.622l1.6374 1.042c4.999-8.4974 9.681-18.58 15.034-25.305 1.2324-1.8789 2.2163-4.8047 2.3817-8.3359l2.2328 26.347 2.3817-1.042-0.18321-18.893c-0.01156-0.94853-0.378-1.8678 0.48091-2.2443 1.1562-0.50674 2.3321 0.48761 3.5725 1.6374l7.145 7.8893-0.14886-5.8054-7.4428-10.718-11.611-11.313-13.992 2.3817z" fill="#ff6d00" fill-rule="evenodd"/>
  <path d="m292.45 332.56c-9.4942-17.303-22.235-29.136-35.001-37.646-11.373 9.4563-22.154 18.913-29.787 28.369l-12.766 21.277c-14.225 5.87-31.894 15.042-33.889 27.315l16.868-10.294-16.121 24.976c8.8705-6.1718 16.879-15.047 26.759-22.139l-7.0922 15.603c6.1466-3.4662 13.674-14.3 19.82-22.944 4.6506 1.5773 9.4344 4.8217 12.401 4.7155 0.97632-4.2553-6.4032-8.2237-10.638-12.479 8.9672-8.9834 19.331-19.174 30.19-28.158 7.3379-0.72784 12.13 3.6353 17.73 6.383 4.2553 3.0306 8.0504 8.1941 12.306 13.073l9.2199-8.0505z" fill="#ff6d00" fill-rule="evenodd"/>
  <path d="m431.53 303.23c-3.1951-5.5565-13.14-9.5978-12.987-9.4453 0.7155 6.9051 6.7477 12.218 11.807 18.3-6.1001-2.7748-12.2-3.52-18.3-4.1323 6.4614 5.8052 13.807 9.1367 21.842 10.036l7.6743-2.3613-10.036-12.397z" fill="#ff6d00" fill-rule="evenodd"/>
  <path d="m463.41 341.6c-1.548-9.9503-2.0121-20.443-6.4936-28.926-4.0914-10.904-10.487-17.202-17.71-21.842-3.4287 2.236-6.1889 5.475-6.4936 12.397 0.72419 10.232 6.5304 20.465 11.807 30.697l18.891 7.6743z" fill="#ff6d00" fill-rule="evenodd"/>
  <path d="m438.9 291.07c-7.0362 3.0324 3.4328 36.23 16.29 38.32 1.4943 0.24294 4.0202-3.6337 2.6374-10.55l6.2057 19.858-0.31029 3.4132-20.479-9.1535 4.6543-1.7066-12.256-16.135-2.6374-7.2917-0.62057-8.9983 2.6374-6.6712 3.8786-1.086z" fill="#d75b00" fill-rule="evenodd"/>
  <path d="m526.58 334.52c13.933-15.718 7.1366-26.653 1.1807-37.781-15.953-17.79-33.944-19.287-51.359-25.384-20.451-5.0827-41.37-9.0728-57.262-24.794-7.0306-12.971-11.711-26.204-4.7226-40.733 16.02-11.203 32.8-18.608 51.949-14.168 11.779 3.0705 16.154 11.695 15.349 24.204 2.6566-2.558 7.0409-2.8123 5.313-11.216 2.0376-13.682-6.8641-21.287-18.891-27.155-16.529-3.9292-33.059 1.2959-49.588 8.2646-13.248 9.2508-26.329 18.702-31.878 37.191-2.5845 15.732 8.8477 25.234 20.071 34.83 16.605 13.388 35.768 20.38 55.491 25.975 14.758 3.1969 29.517 12.494 44.275 21.842 7.5265 8.806 15.56 17.105 20.071 28.926z" fill="#ff6d00" fill-rule="evenodd"/>
  <path d="m462.48 176.42c4.6029 2.265 11.261 5.8609 10.239 8.2226-0.8316 1.9222-3.3418 3.2205-5.43 2.3272 2.1055 1.7583 8.0468 2.8877 8.3777 5.2749 0.18366 1.3249-1.9918 1.794-4.4992 0.62057 3.7525 3.6758 7.4837 7.3676 9.6189 12.256l0.15514 11.946 4.9646-3.5683 1.3963-11.946-5.2749-13.032-9.4637-8.5329-10.084-3.5683z" fill="url(#t)" fill-rule="evenodd"/>
  <path d="m526.58 291.43c13.86 6.1508 27.045 15.001 37.781 33.649 6.2037 12.453 16.812 22.263 15.939 38.962-3.1793 10.023-16.696 15.912-27.155 23.023-28.938 12.887-55.663 8.0681-81.466-4.1323l-52.539-26.565-10.036-2.3613c11.526 14.355 25.097 27.346 23.023 50.768 0.7203 17.193-9.4618 18.811-19.481 20.662-18.22 8.07-40.268 9.7607-63.165 10.036-21.252-1.2527-42.504-5.144-63.756-18.891-11.354-11.012-23.84-20.751-23.023-45.455 7.8784-16.638 15.28-33.303 50.768-48.407l20.662-8.2646 7.6743 0.59033 29.517-9.4453c19.149 1.5002 45.064 16.532 68.478 26.565 15.181 8.2357 33.843 12.99 53.72 16.529 12.2-0.01664 24.4 2.2644 36.601-15.939 4.071-5.3743 3.485-15.406 2.9516-25.384l-6.4936-15.939z" fill="#ff6d00" fill-rule="evenodd" stroke="#000" stroke-width=".4"/>
  <path transform="matrix(1.0838 0 0 1.0941 -29.922 -26.53)" d="m416.31 364.77c0 16.638-28.437 30.142-63.475 30.142s-63.475-13.504-63.475-30.142c7.1982-9.1518 18.11-16.208 43.233-28.575 6.3583-1.0163 15.783-2.8636 22.86-2.8636 35.038 0 60.858 14.8 60.858 31.438z" fill="url(#s)"/>
  <path d="m534.65 344.51c-11.108 11.086-24.477 16.881-29.843 12.935s8.6235-10.563 19.731-21.65 15.148-22.463 20.514-18.517 0.70599 16.145-10.402 27.231z" fill="url(#r)" opacity=".5"/>
  <path d="m394.75 311.96c0 4.1648-11.642 10.06-23.219 10.06s-20.972-3.3801-20.972-7.5449 12.391-10.563 23.968-10.563 20.223 3.8831 20.223 8.0479z" fill="url(#q)" opacity=".5"/>
  <path d="m456.57 322.19c-2.7752 1.579-8.1478-2.6235-11.992-9.3806s-4.7124-13.523-1.9372-15.102 6.8514 2.3791 10.696 9.1362 6.0089 13.767 3.2336 15.346z" fill="url(#p)" opacity=".5"/>
  <path d="m452.56 466.53c-2.1441 9.4783-6.192 16.649-9.0354 16.006s-3.4112-8.8578-1.2671-18.336 6.192-16.649 9.0355-16.006 3.4112 8.8578 1.2671 18.336z" fill="url(#o)" opacity=".5"/>
  <path transform="matrix(.76233 -.5531 .54312 .77634 -41.615 363.42)" d="m534.68 297.37a3.7724 19.617 0 1 1 -7.5449 0 3.7724 19.617 0 1 1 7.5449 0z" fill="url(#n)" opacity=".5"/>
  <path d="m539.21 368.79c32.737-14.405 29.677-36.215 29.677-36.215 5.6296 10.095 13.953 18.844 12.072 32.695 0 0-9.3054 24.269-38.73 27.665s-49.219-0.89237-78.97-14.084c-26.659-11.82-45.772-23.138-45.772-23.138-0.43722 1.2023 82.053 30.534 121.72 13.078z" fill="url(#m)" fill-rule="evenodd"/>
  <path d="m548.83 364.35c-4.6092 0.41021-8.7588 0.92754-12.206 3.7214 1.2253 4.1755 3.497 7.8278 7.8893 10.42 13.167 6.5874 26.479 10.718 40.042 10.569 7.6744 0.08668 15.586 0.67304 19.798-6.5496 2.5138-6.2281-2.9846-8.7073-5.3588-11.313 0.26648 1.5023-0.31628 2.3678-1.6374 2.6794-6.8768-7.01-14.175-8.5426-21.435-10.569-9.174-0.51328-18.309-0.79008-27.092 1.042z" fill="#ff6d00" fill-rule="evenodd"/>
  <path transform="matrix(2.8588 .75704 -.28119 1.4494 -753.07 -524.89)" d="m508.02 356.47a5.7844 4.2754 0 1 1 -11.569 0 5.7844 4.2754 0 1 1 11.569 0z" fill="url(#l)" opacity=".5"/>
  <path d="m601.58 374.33s2.9094 8.6326-4.5269 8.5509c-7.9555-0.09375-32.212-0.89078-48.79-9.0539-5.4587-2.6878-7.9048-3.5468-5.1945-5.108 3.7192-2.1423 21.264-3.9459 21.264-3.9459-7.2917-1.0679-8.6789-2.0997-16.973 0.26888-2.2351 0.63832-10.565 1.9588-10.084 4.2928 0.88352 4.2874 4.8261 9.1448 15.515 14.049s15.97 4.7784 27.162 6.0359 17.605-1.006 17.605-1.006c2.2216-1.1875 4.9572-1.1756 6.0359-5.0299l1.509-1.006c-0.01456-5.0008-1.9286-6.2027-3.521-8.0479z" fill="url(#k)" fill-rule="evenodd"/>
  <path d="m478.48 219.94z" fill="#620c0b" fill-rule="evenodd" stroke="#000"/>
  <path d="m600.25 387.88 17.221 18.462 2.0169 8.8432-9.9292-9.774c-1.2927-0.93025-2.6604-0.67345-3.1029 0.31029-1.1278 2.5076 1.0747 7.602 1.8617 10.395l-0.62057 7.7572-3.1029-9.3086s-1.086-9.231-0.62057-12.877c1.3963 0.69814 2.1436-0.32117 2.4823-1.7066 0.26987-1.104-5.4518-3.0048-6.9814-1.7066-1.1162 0.94731-2.3954 3.3666-2.9477 2.4823-0.78124-1.2509-0.66299-4.0883-1.8617-3.4132-5.3001 2.9851-17.045 14.938-17.531 18.307l16.445-12.722 3.8786-0.31029c1.2181 3.5011-5.5564 13.311-6.0506 19.238 5.198-1.8677 8.19-11.824 12.256-17.841l0.15515 3.5683-1.8617 0.93086-8.8432 16.755-8.0674 10.86 1.3963-10.705 6.6712-19.238-2.9477 0.31028-22.651 19.548 4.1889-11.636 18.462-18.772-5.2749-6.6712 14.583-2.3272 0.77572 1.2411z" fill="url(#j)" fill-rule="evenodd"/>
  <path transform="matrix(1.1579 0 0 1 -63.88 4.0239)" d="m410.95 219.15a4.7784 14.335 0 1 1 -9.5569 0 4.7784 14.335 0 1 1 9.5569 0z" fill="url(#i)" opacity=".5"/>
  <path d="m479.34 220.11c1.9644-6.7526 1.1952-29.563-20.755-28.608-17.389 0.75658-30.347 5.1132-41.785 16.243-9.689 9.4282-3.5263 31.36 10.073 43.039 17.513 15.039 39.999 16.71 60.581 22.437 21.911 6.0971 52.46 18.384 66.769 37.325 12.49 16.533 32.102 35.934 26.346 55.229-4.3206-22.333-14.67-41.212-26.478-54.456-5.5406-6.2143-13.311-11.767-26.25-17.905-19.866-9.4243-39.69-18.801-62.51-23.751-20.97-4.5488-41.062-10.356-50.799-23.928-7.5554-10.531-9.4157-24.826-4.5025-34.217 4.2576-8.1377 12.647-17.474 31.85-20.946 13.102-2.3691 29.956-3.5784 37.46 8.621 4.9534 8.0529 2.9345 15.537 0 20.916z" fill="#620c0b" fill-rule="evenodd"/>
  <path d="m416.09 425.27 16.755 19.393-1.3963 28.546-4.0337 26.064-3.7234 10.705c-3.4173 3.8206-6.9367 7.4882-11.17 10.084l-10.55 6.516 4.9646 0.62057c5.2156 1.313 20.218-14.136 21.875-21.255 4.2502-18.257 8.3229-39.904 11.946-59.42 1.4457-7.7874 1.5581-10.72 3.5683-12.722 3.4609-3.4441 5.5755-2.8586 6.9814-0.15514 2.5482 4.8999 0.15515 20.789 0.15515 20.789l4.6543-24.823v-4.0337l-27.15-8.688-12.877 8.3777z" fill="url(#h)" fill-rule="evenodd"/>
  <path d="m598.82 371.39c7.7016 2.2971 7.7982 7.6368 7.2561 10.331-1.1672 5.8005-7.5029 8.4336-11.93 8.732-12.086 0.81447-23.891-0.62427-35.174-3.8125-5.8125-1.6424-10.992-4.7984-15.619-7.8711-5.2204-3.4663-6.6916-6.8976-6.6412-10.946 2.6755 6.1479 12.161 12.077 24.843 15.988 9.5117 2.9334 18.745 4.182 27.549 4.1815 7.3334-4.6e-4 12.069-1.0408 14.266-6.1493 1.186-2.7571-2.1065-7.3342-4.5504-10.454z" fill="#620c0b" fill-rule="evenodd"/>
  <path d="m435.64 496.95c3.1931 3.3233 6.0045 6.6657 1.086 10.395l1.8617 3.4132 3.8786-5.2749-0.62057-4.0337-6.2057-4.4992z" fill="#d75b00" fill-rule="evenodd"/>
  <path d="m437.66 511.22c-2.4478-0.31585-3.1907-1.8914-4.0337-3.4132-1.0472 1.629-0.77214 5.9026-1.086 8.9983l-2.6374 7.9123 7.2917-5.43s-1.8392-0.83984-2.0169-2.4823c-0.11724-1.0839 0.45377-2.2061 2.3272-2.3272l0.15514-3.258z" fill="#d75b00" fill-rule="evenodd"/>
  <path d="m599.55 388.49c9.002 6.8786 17.648 18.936 19.063 24.597-2.4695-1.6252-7.2946-6.5871-9.5267-8.0874 1.1626 2.2306 5.8256 6.8562 11.863 13.868 0.41602-5.4938 0.84476-10.985-5.7803-18.079-4.4371-5.1776-9.2745-9.1541-14.02-13.405l-1.5988 1.1069z" fill="#620c0b" fill-rule="evenodd"/>
  <path d="m427.58 531.08-4.6543 1.5514-6.8263-0.46543 6.0506-5.8954 0.77571-6.6712c2.7409-1.6404 5.792-1.8915 8.2226-0.62058l-1.8617 6.8263c-1.8258 0.33562-4.0724 0.2962-4.4992 2.6374-0.32296 1.7717 1.6532 2.1058 2.7926 2.6374z" fill="#d75b00" fill-rule="evenodd"/>
  <path d="m603.61 401.52c-0.38504 16.715-1.0903 34.099 5.5343 36.158 1.7439-6.2313 1.2209-22.821-1.2154-31.881-0.3565 4.042 0.68873 10.504-0.75232 14.54-2.2107-5.0658-0.71572-17.807-3.5666-18.817z" fill="#620c0b" fill-rule="evenodd"/>
  <path d="m251.08 300.67c-6.1094 5.6281-16.694 18.934-15.027 20.706 1.2329 1.3108 3.6759-0.57671 4.4962-2.1298 0.68566 0.81125 0.10041 2.385-2.3664 5.0878 3.6897 2.8565 8.6018-2.4764 13.489-2.7214l-28.16 26.859 0.59161 1.3015 2.2481 2.0114c-6.9417-0.71107-7.2759-5.8773-10.531-3.9046-5.3299 3.2306-12.266 3.1058-17.156 4.9695l16.447-8.1641 18.813-29.107 17.156-14.908z" fill="url(#g)" fill-rule="evenodd"/>
  <path d="m506.38 282.15c10.376 9.3298 24.782 15.632 26.201 31.743 1.0522 11.943-3.7419 18.857-10.082 24.823-12.86 12.102-35.22 10.913-55.127 3.7184-36.542-13.207-74.162-39.139-93.73-37.993-24.973 1.4627-52.593 21.395-60.88 33.028 13.832-9.8749 37.475-29.878 60.993-30.516 21.933-0.59557 56.585 25.936 91.489 36.899 15.239 4.7866 27.678 8.9627 42.613 6.3631 7.2475-1.2615 24.526-12.272 26.182-21.257 3.9121-21.228 0.76952-29.45-7.8014-39.007l-19.858-7.8014z" fill="#620c0b" fill-rule="evenodd"/>
  <path d="m559.94 385.57c-11.375 8.0641-25.116 10.942-40.156 11.375-16.198 0.46586-32.423-4.0475-47.739-11.547-15.564-7.6207-30.292-16.98-44.981-24.128-6.7228-3.2715-13.855-5.7246-21.026-8.1001l-0.34468-1.7234c14.68 4.9381 29.772 10.463 46.188 19.647 10.671 5.9701 21.709 11.532 33.779 14.994 16.555 4.7479 33.157 7.5971 49.979 3.2745 6.0973-1.5668 12.296-2.7454 18.096-5.8596l6.2043 2.0681z" fill="#620c0b" fill-rule="evenodd"/>
  <path d="m546.67 365.37c24.352-10.663 52.338 2.9491 51.408 9.4699-16.554-9.9673-33.871-10.984-51.408-9.4699z" fill="#620c0b" fill-rule="evenodd"/>
  <path d="m336.76 314.74c-23.375 6.7392-42.582 19.975-59.63 36.709-9.082 8.9139-13.06 19.342-12.064 31.366 1.7898 21.615 16.581 31.027 34.296 39.294 16.79 7.8355 36.748 12.73 56.356 11.719 16.809-0.86608 29.6-2.721 53.081-7.5831 6.3732-1.3197 15.847-6.4967 17.751-10.168 6.2232-11.998 2.4852-24.781-3.2745-38.605-4.8077-11.539-12.264-20.378-21.887-26.713-14.598-9.6098-27.805-12.249-45.326-12.409 13.214-1.8882 29.651-0.2616 46.015 10.341 11.398 7.3848 21.113 15.393 26.541 28.609 3.4822 8.478 7.3282 16.576 6.2043 27.402-0.71504 6.8881-4.3814 15.027-12.409 19.302-12.841 6.8395-27.448 8.4871-44.981 11.719-18.551 3.42-35.642 1.5695-52.737-1.034-13.262-2.0198-25.518-7.7325-36.364-15.511-8.0905-5.8023-16.548-10.81-22.06-20.853-6.635-12.09-6.9244-25.836-2.7575-35.502 7.9657-18.479 23.41-28.818 38.605-36.881 10.594-5.6215 22.454-8.7478 34.641-11.202z" fill="#620c0b" fill-rule="evenodd"/>
  <path d="m281.93 339.21c-1.006-10.493-16.287-17.205-31.349-19.994 11.039 4.3178 23.464 10.269 31.349 19.994z" fill="#620c0b" fill-rule="evenodd"/>
  <path d="m282.04 320.37c-2.9498 2.144-10.893-1.092-17.73-7.2232s-9.9922-12.847-7.0425-14.991 9.2128 1.0943 16.05 7.2255 11.672 12.845 8.7225 14.989z" fill="url(#f)" opacity=".5"/>
  <path d="m292.43 332.2c-7.6875-12.549-28.708-32.638-38.569-37.976 7.32-0.59769 14.457 3.1519 24.473 14.649 6.7917 7.7968 14.301 15.45 14.096 23.327z" fill="#620c0b" fill-rule="evenodd"/>
  <path d="m257.48 294.75c-19.451 11.796-31.441 27.256-32.4 29.126-3.2417 6.3211-7.4576 13.223-10.685 19.819-17.622 7.4091-23.025 11.298-30.505 19.819-2.7643 3.1497-5.3811 8.6746-4.6532 12.409 5.5831-5.2544 9.9064-7.3595 14.649-10.513-5.096 7.9072-12.114 13.982-13.787 24.645 8.9246-5.2463 14.494-12.17 21.715-18.268-1.7264 5.0583-2.5247 9.7056-2.4128 13.96 7.7554-7.1235 14.649-19.181 22.404-27.23 3.5009-0.38199 6.5954 4.0873 13.098 5.1703 0.38404-3.2134-0.84374-5.6909-2.7575-8.4448-2.2257-2.7016-6.0026-4.643-8.6758-5.5546 2.6029 2.8473 9.283 7.2097 9.3651 10.897-3.5617-0.17327-7.8128-3.4037-11.375-5.3426-7.7012 7.0281-12.535 15.29-17.234 22.232 1.3062-6.3767 5.5685-12.926 7.7554-20.164-8.4448 11.282-18.441 18.123-26.885 25.679 4.8318-7.9236 11.387-17.284 17.579-24.3-7.0086 1.74-14.362 5.9249-19.992 11.719 2.9467-5.4163 7.5881-11.726 13.27-15.511 5.5838-3.7191 13.443-5.9745 20.164-8.9618 4.6194-7.6523 8.3917-15.024 14.821-23.439 7.3901-9.6713 17.318-18.592 26.541-27.747z" fill="#620c0b" fill-rule="evenodd"/>
  <path d="m429.93 415.55c8.4987 4.0782 18.294 6.4276 28.315 8.4754-0.30836 15.463-1.7942 30.638-6.9344 45.844-6.0208 17.811-14.254 26.389-14.254 26.389 2.7082 1.7863 5.7968 3.6817 6.5491 6.7418 0.97811 3.9784-1.3795 7.1114-4.4303 9.8237 0.88239 7.08-3.6384 10.23-8.2827 13.291-0.70628 1.3283-1.4126 2.9248-2.1188 5.7786-4.8798 1.282-9.7595 4.1148-14.639 0.57787 0.4417-2.9895 8.2532-4.7982 7.5123-9.6311-3.66 2.4395-7.5763 4.3665-11.75 5.7787-3.9363 0.63156-8.2855 0.65847-10.979-1.3484 8.7464-4.9797 23.196-12.763 25.619-20.996 5.5603-18.895 6.3501-45.008 8.0901-68.573l2.1188 2.3115c-0.0959 17.472-0.70633 34.184-5.2008 53.549-1.3157 5.6688-1.9202 12.957-5.586 17.529-4.7709 5.949-12.431 10.94-19.07 15.217 8.4787 0.4105 12.388-5.6655 18.877-7.127 0.56147 3.3627 0.61495 5.5083-0.38524 8.0901-1.9904 0.96638-3.9808 2.4867-5.9713 4.4303 2.9908 1.1722 6.5676-0.18371 10.209-0.96312 0.72769-8.9676 4.9259-14.079 5.3934-23.115 0.58203 5.1038 0.68278 10.191-1.7336 15.795 1.8608-0.90123 3.9534-2.6873 5.2008-4.6229 1.1402-5.0308 0.65324-9.7361-0.77049-14.254l2.5041 4.6229c1.7331-1.9262 3.8187-3.9076 3.4672-5.7787-0.67354-3.5849-4.5984-4.8005-7.3196-6.3565 12.014-22.517 20.302-45.809 20.033-70.885-9.0008-1.2254-17.709-3.9123-26.197-7.7049l1.7336-2.8893z" fill="#620c0b" fill-rule="evenodd"/>
  <path d="m433.21 443.29c-6.178-8.2687-12.866-16.027-15.602-18.492l-3.082 1.541c5.8155 6.3942 11.779 13.976 18.106 24.463l0.57786-7.5122z" fill="#620c0b" fill-rule="evenodd"/>
  <path d="m330.92 341.01c-19.39 9.2461-33.388 19.904-47.77 31.397 6.8946-12.476 22.891-23.098 47.77-31.397z" fill="#620c0b" fill-rule="evenodd"/>
  <path d="m370.41 362.01c-2.0546-5.7787-4.2377-10.466-7.3196-13.676-1.7379-3.5271-4.4903-6.0397-8.2827-7.5123l-7.127-2.1188c-6.6298 0.99443-11.833 4.8424-16.951 8.8606-8.3303 6.2298-12.098 14.533-14.832 23.307-1.5285 8.1543-3.9664 16.309 1.9262 24.463 6.6983 9.2266 15.008 12.976 24.27 13.484 12.023-1.6507 20.402-7.4668 25.233-17.336 3.6237-5.3152 7.0355-10.736 4.6229-19.07l-1.541-10.402z" fill="url(#e)" fill-rule="evenodd"/>
  <path d="m395.07 366.24c1.3544 6.5522 1.6633 12.582 0.96311 18.106-0.07245 3.0848 0.5081 6.407-5.0082 7.5122-10.679-0.72594-14.673-10.046-18.299-19.84-2.7208-11.75-4.0056-23.5-2.1188-35.25 1.7443-3.9671 2.7327-8.9061 7.8975-8.4754 4.7352 2.8855 8.1008 8.1677 10.787 14.639l5.7786 23.307z" fill="url(#d)" fill-rule="evenodd"/>
  <path d="m363.86 349.48c-7.2877-9.7262-16.093-12.082-24.463-7.127-16.798 9.9452-22.708 24.755-24.078 39.68-0.96495 10.516 5.1831 17.112 12.328 21.188 10.98 6.2652 21.815 4.5409 31.975-4.4303 6.5582-5.7909 11.544-12.445 11.75-21.188 0.04883-2.0684 0.2644-3.6062-0.19263-6.1639-1.1677-6.5348-2.9863-17.866-2.6967-27.545 0.26571-8.8801 3.4999-16.621 7.7049-17.336 4.9447-0.8404 10.768 7.2026 13.291 14.254 2.9961 8.3742 4.0469 17.579 5.9713 26.582-2.6485-9.0452-3.6127-18.953-8.2828-26.967-2.2636-3.8846-4.047-8.5986-7.7049-10.979-2.1616-1.407-4.9146 0.36879-5.9713 3.2746-2.1748 5.9808-3.1284 12.205-2.6967 18.492 0.46854 6.8231 0.77572 18.675 4.4303 25.619 3.1008 5.8917 7.3893 11.281 13.676 13.676 4.3496 1.6572 5.9291-2.3139 7.3196-6.3565-0.06673 3.5736 0.14815 7.5737-4.2377 9.4385-5.0054 2.1282-9.5936-0.68345-13.291-4.4303-3.4133-3.459-3.8339-6.5078-5.2008-9.0532 0.22112 5.397-2.3854 11.02-6.1639 15.988-6.6982 8.8059-14.222 12.907-22.344 14.639-7.3919 1.5763-13.383-0.72209-18.684-4.8156-5.4796-4.2309-8.9752-7.525-11.557-13.676-2.2603-5.3845-3.3956-13.31-2.1188-18.877 1.6683-7.2744 4.5407-13.493 10.594-20.033 5.6052-6.0552 12.657-13.234 20.611-15.217 5.3461-1.3334 10.717 0.00778 15.025 4.4303 2.2771 2.3378 4.9971 3.8569 5.0082 6.9344z" fill="#6a110a" fill-rule="evenodd"/>
  <path d="m357.31 349.87c-2.8849 0.82221-3.6722 6.7736-1.9262 11.75 1.0974 3.1279 3.0899 6.1148 6.1639 5.0082 3.4765-1.2515 4.2426-4.9991 2.8893-9.4385-1.6441-5.3933-4.8944-7.956-7.127-7.3196z" fill-rule="evenodd"/>
  <path d="m378.69 336.77c-2.434 0.58288-3.16 5.7556-2.8893 10.402 0.23667 4.0627 3.0062 6.0548 4.8156 5.586 2.773-0.71838 4.1536-5.2982 3.082-9.6311-0.73731-2.9812-2.512-6.9543-5.0082-6.3565z" fill-rule="evenodd"/>
  <path d="m464.58 338.19c-1.9507-11.772-3.1729-24.322-9.084-32.443-7.1722-9.8526-12.038-16.86-17.087-15.789-5.5276 1.1724-6.8524 8.2822-6.4885 12.545 0.52066 6.0982 1.287 11.902 4.9746 19.249 1.5155 3.0194 2.9187 5.9847 5.8397 8.0025-1.1542 0.57606-2.6705 0.79004-4.9746 0.21629l6.7048 4.1094c1.9437-0.51038 3.8161-1.1633 5.1908-2.8117-5.0816-5.1188-8.6109-10.329-12.112-15.356-4.6878-6.7316-4.6599-12.459-3.8931-18.384 0.71764-5.545 5.3718-6.52 7.7862-4.1094 4.7627 4.7552 6.8376 9.4053 13.193 21.196 4.1519 7.7021 7.1345 17.367 9.3003 27.252l0.64885-3.6768z" fill="#620c0b" fill-rule="evenodd"/>
  <path d="m437.54 320.45c-10.331-1.3674-20.158-6.0747-28.766-12.545 4.7456-2.149 12.079 0.23022 19.033 1.9466-5.1236-4.6104-8.1763-10.774-11.031-17.087 5.4604-0.02793 10.468 4.4723 15.356 10.165l0.64886 3.6768c-4.3267-4.6931-8.7675-10.185-12.545-11.031 0.88938 5.4244 7.819 11.558 12.328 17.519-7.3951-2.2392-13.864-3.7378-18.384-3.6768 6.4391 3.92 13.832 5.9322 21.412 7.57l1.9466 3.4606z" fill="#620c0b" fill-rule="evenodd"/>
  <path d="m416.31 406.01c-1.4366 3.1976-5.9004 5.3386-8.272 8.1294 3.1341 0.18311 5.6558 0.28223 8.4146-0.28524-0.34379 2.2764-1.3292 4.232-2.4246 6.1327-4.8966 0.08317-9.9724-0.64975-13.692 0.57048-7.738 2.5388-15.912 4.0635-23.247 4.9917-10.633 1.3456-20.607 1.6785-30.806 1.9967l3.5655-0.42787c5.0881-4.769 16.424-12.292 22.819-14.833 7.7024-3.06 14.215-5.8946 22.391-7.131 5.9307-0.89685 14.197-0.37117 21.25 0.85572z" fill="#620c0b" fill-rule="evenodd"/>
  <path d="m406.18 409.14c-17.303-3.9653-37.548 11.907-48.491 15.688 8.2502-0.87651 12.535-1.9286 21.964-4.136 9.1776-2.1486 22.406-3.7169 26.527-11.552z" fill="#af250e" fill-rule="evenodd"/>
  <path d="m413.48 401.78c-7.8324-1.6073-9.564-7.1486-9.5674-7.1654 2.6241 2.8123 5.5412 5.2419 9.5674 7.1654z" fill="#620c0b" fill-rule="evenodd"/>
  <path d="m256.27 320.77c-11.42 9.1458-22.421 18.463-32.018 29.433l-2.2783-1.3408c8.714-11.863 19.464-20.547 30.849-28.954l3.4468 0.86172z" fill="#620c0b" fill-rule="evenodd"/>
  <path d="m479.52 220.12c3.5595-1.7276 9.6343-4.1762 9.1009-14.512-0.56436-10.936-5.5433-19.829-15.373-26.319-7.1385-4.7133-16.76-3.788-24.351-2.8286-17.977 2.2718-30.407 5.0045-41.692 14.143-7.61 6.1628-12.973 12.284-17.71 18.694-3.8655 5.2305-4.6333 10.833-4.6734 16.603-0.04545 6.5378 2.1716 13.141 7.3791 19.063 8.4682 10.986 19.211 20.329 33.575 27.057 15.124 7.4182 30.751 12.674 46.734 16.357 11.446 2.6372 21.226 9.1798 30.377 16.603 11.035 8.9515 18.066 21.064 22.26 32.837l3.3206-3.4436c-4.996-11.878-14.193-22.865-24.474-30.869-7.7787-6.056-18.447-15.285-30.377-17.956-15.918-3.564-31.182-9.9807-46.365-16.603-14.87-5.8649-23.273-15.914-32.837-25.212-4.5228-5.2984-7.9892-14.605-6.3952-20.785 2.9256-11.342 9.1713-18.607 19.432-27.18 10.892-9.1006 23.15-15.829 39.232-17.71 8.7803-1.0269 17.482-2.7755 24.597 2.7057 6.859 5.284 14.522 10.318 14.881 22.875 0.08671 3.029-0.3809 7.561-1.9678 10.454-0.92004 1.6772-2.6504 1.7417-3.5666 1.5988l-1.1069 4.4275z" fill="#620c0b" fill-rule="evenodd"/>
  <path d="m584.06 390.58c2.6505 1.2298 4.8093 4.5505 4.5505 4.5505-15.173 12.756-25.346 27.077-26.073 36.773 9.4289-3.2844 18.366-18.489 29.025-24.966-3.2365 13.024-13.096 30.576-9.3469 38.002 9.7063-10.371 14.154-27.778 20.545-37.018-5.7159 4.7894-10.155 15.592-15.626 21.768 2.0107-9.5102 7.1906-18.825 8.609-27.672-2.6071-0.41692-4.9753 0.83857-7.2561 2.7057-5.2771 3.2781-8.5164 9.9988-13.651 11.93 2.6603-6.5037 10.047-13.986 18.571-20.662-2.3934-1.755-4.6524-3.5771-6.3952-5.6573l-2.9516 0.24597z" fill="#620c0b" fill-rule="evenodd"/>
 </g>
</svg>
